  <svg xmlns="http://www.w3.org/2000/svg" data-name="Layer 1" viewBox="0 0 100 125" x="0px" y="0px">
      <path
        d="M85.03,57.12c-1.27,0-2.53,.49-3.49,1.45l-7.4,7.4-2.63-2.63,3.59-3.6c.93-.93,1.45-2.18,1.45-3.49s-.51-2.58-1.44-3.51c-.93-.93-2.18-1.42-3.5-1.45-1.33,.01-2.57,.53-3.5,1.46l-6.2,6.2-16.01-16.02c4.32-7.45,3.1-17.11-3.05-23.25-7.5-7.5-19.71-7.5-27.21,0-7.5,7.5-7.5,19.71,0,27.21,6.14,6.14,15.8,7.36,23.26,3.05l34.6,34.6c.93,.93,2.18,1.45,3.49,1.45s2.57-.52,3.5-1.45c.93-.94,1.45-2.18,1.45-3.5s-.52-2.56-1.45-3.5l-1.94-1.94,10.01-10c.93-.93,1.45-2.18,1.45-3.5s-.52-2.56-1.45-3.49-2.25-1.46-3.52-1.46Z"
        fill="#FFFFFF"
      />
    </svg>