 <svg
      xmlns="http://www.w3.org/2000/svg"
      xmlnsXlink="http://www.w3.org/1999/xlink"
      width="100"
      height="125"
      viewBox="0 0 100 125"
    >
      <path
        d="M82.3,43.1c-14.8-5.4-30.6-6.9-45.9-4.7V25.9c0-7.5,6.1-13.6,13.6-13.6s13.6,6.1,13.6,13.6c0,2.7,2.2,4.9,4.9,4.9s4.9-2.2,4.9-4.9C73.4,13,62.9,2.5,50,2.5C37.1,2.5,26.6,13,26.6,25.9v14.4c-3,0.8-5.9,1.7-8.9,2.7c-1.9,0.7-3.2,2.5-3.2,4.6v44.9c0,2.7,2.2,4.9,4.9,4.9h61.2c2.7,0,4.9-2.2,4.9-4.9V47.7C85.5,45.6,84.2,43.8,82.3,43.1z M75.7,87.7H24.3V51.1c16.7-5.4,34.7-5.4,51.4,0V87.7z"
        fill="#fff"
      />
      <path
        d="M43.1,61.7c0,2.7,1.5,5,3.8,6.1l-2.7,10.1c-0.1,0.5,0,1.1,0.3,1.5s0.8,0.7,1.4,0.7h8.3c0.5,0,1-0.2,1.4-0.7s0.4-1,0.3-1.5l-2.7-10.1c2.2-1.1,3.8-3.4,3.8-6.1c0-3.8-3.1-6.9-6.9-6.9S43.1,57.9,43.1,61.7z"
        fill="#fff"
      />
    </svg>